<svg xmlns="http://www.w3.org/2000/svg" width="1280" height="640" viewBox="0 0 1280 640" role="img" aria-labelledby="title desc">
  <title id="title">JURO — Legal intelligence for Uzbekistan</title>
  <desc id="desc">JURO social preview with logo, positioning and source-aware legal workspace visual.</desc>
  <defs>
    <linearGradient id="bg" x1="0" y1="0" x2="1" y2="1"><stop stop-color="#041f37"/><stop offset="1" stop-color="#062844"/></linearGradient>
    <radialGradient id="glow" cx="80%" cy="37%" r="57%"><stop stop-color="#BE974F" stop-opacity=".28"/><stop offset="1" stop-color="#BE974F" stop-opacity="0"/></radialGradient>
    <pattern id="grid" width="42" height="42" patternUnits="userSpaceOnUse"><path d="M42 0H0V42" fill="none" stroke="#dce6ed" stroke-opacity=".055"/></pattern>
    <filter id="shadow" x="-20%" y="-20%" width="150%" height="160%"><feDropShadow dx="0" dy="14" stdDeviation="17" flood-color="#000d18" flood-opacity=".4"/></filter>
  </defs>
  <rect width="1280" height="640" fill="url(#bg)"/><rect width="1280" height="640" fill="url(#grid)"/><rect width="1280" height="640" fill="url(#glow)"/>
  <path d="M760 0C935 122 1055 106 1280 68M835 640C1008 520 1133 523 1280 573" fill="none" stroke="#BE974F" stroke-opacity=".18"/>
  <image href="juro-mark.png" x="78" y="68" width="50" height="50"/><text x="147" y="102" fill="#fff" font-family="Inter,Arial,sans-serif" font-size="30" font-weight="800" letter-spacing="7">JURO</text>
  <text x="78" y="180" fill="#caa866" font-family="Inter,Arial,sans-serif" font-size="12" font-weight="800" letter-spacing="2">LEGAL INTELLIGENCE FOR UZBEKISTAN</text>
  <text x="78" y="262" fill="#fff" font-family="Georgia,serif" font-size="59" font-weight="700">Юрист в кармане</text>
  <text x="78" y="311" fill="#c5d2da" font-family="Inter,Arial,sans-serif" font-size="20">Source-aware legal information, documents</text><text x="78" y="340" fill="#c5d2da" font-family="Inter,Arial,sans-serif" font-size="20">and practical next steps in one workspace.</text>
  <g transform="translate(78 416)" font-family="Inter,Arial,sans-serif" font-size="11" font-weight="800" letter-spacing="1.1"><rect width="145" height="38" rx="19" fill="#fff" fill-opacity=".08" stroke="#fff" stroke-opacity=".16"/><circle cx="20" cy="19" r="5" fill="#BE974F"/><text x="35" y="24" fill="#f8f6f2">AI &amp; SOURCES</text><rect x="158" width="136" height="38" rx="19" fill="#fff" fill-opacity=".08" stroke="#fff" stroke-opacity=".16"/><circle cx="178" cy="19" r="5" fill="#BE974F"/><text x="193" y="24" fill="#f8f6f2">DOCUMENTS</text><rect x="307" width="151" height="38" rx="19" fill="#fff" fill-opacity=".08" stroke="#fff" stroke-opacity=".16"/><circle cx="327" cy="19" r="5" fill="#BE974F"/><text x="342" y="24" fill="#f8f6f2">CASE WORK</text></g>
  <text x="78" y="555" fill="#a9bcc7" font-family="Inter,Arial,sans-serif" font-size="13" font-weight="800" letter-spacing="1.2">RU · UZ · EN   ·   JURO.UZ   ·   APP.JURO.UZ</text>
  <g filter="url(#shadow)"><rect x="746" y="105" width="444" height="382" rx="24" fill="#f8f6f2"/><rect x="746" y="105" width="444" height="52" rx="24" fill="#0d314b"/><rect x="746" y="134" width="444" height="23" fill="#0d314b"/><circle cx="778" cy="130" r="5" fill="#BE974F"/><circle cx="796" cy="130" r="5" fill="#f8f6f2" fill-opacity=".7"/><text x="828" y="135" fill="#e5eef1" font-family="Inter,Arial,sans-serif" font-size="10" font-weight="800" letter-spacing="1.2">JURO / LEGAL WORKSPACE</text><text x="780" y="211" fill="#062844" font-family="Inter,Arial,sans-serif" font-size="23" font-weight="800">From question to a next step</text><rect x="780" y="242" width="376" height="87" rx="13" fill="#fff" stroke="#d7e0e4"/><text x="802" y="271" fill="#9b773b" font-family="Inter,Arial,sans-serif" font-size="10" font-weight="800" letter-spacing="1.2">SOURCE-AWARE RESPONSE</text><text x="802" y="303" fill="#062844" font-family="Inter,Arial,sans-serif" font-size="16" font-weight="800">Show the evidence, then continue the work.</text><rect x="780" y="357" width="112" height="92" rx="14" fill="#062844"/><text x="800" y="384" fill="#caa866" font-family="Inter,Arial,sans-serif" font-size="9" font-weight="800" letter-spacing="1">ASK</text><text x="800" y="418" fill="#fff" font-family="Inter,Arial,sans-serif" font-size="16" font-weight="800">Context</text><rect x="906" y="357" width="112" height="92" rx="14" fill="#e6edef"/><text x="926" y="384" fill="#9b773b" font-family="Inter,Arial,sans-serif" font-size="9" font-weight="800" letter-spacing="1">CHECK</text><text x="926" y="418" fill="#062844" font-family="Inter,Arial,sans-serif" font-size="16" font-weight="800">Sources</text><rect x="1032" y="357" width="124" height="92" rx="14" fill="#f1e5cf"/><text x="1052" y="384" fill="#9b773b" font-family="Inter,Arial,sans-serif" font-size="9" font-weight="800" letter-spacing="1">ACT</text><text x="1052" y="418" fill="#062844" font-family="Inter,Arial,sans-serif" font-size="16" font-weight="800">Next step</text></g>
</svg>
